<svg width="480" height="560" viewBox="0 0 480 560" fill="none" xmlns="http://www.w3.org/2000/svg">
  <rect width="480" height="560" rx="32" fill="url(#paint0_linear)" />
  <circle cx="240" cy="184" r="96" fill="#ffffff" fill-opacity="0.9" stroke="#d6e4ff" stroke-width="4" />
  <path d="M240 120c-26 0-48 22-48 60s22 60 48 60 48-22 48-60-22-60-48-60z" fill="#2d7ff9" fill-opacity="0.1" />
  <path d="M206 276c-44 8-74 46-74 90 0 11 5 16 16 16h184c11 0 16-5 16-16 0-44-30-82-74-90-8 12-20 20-34 20s-26-8-34-20z" fill="#ffffff" fill-opacity="0.9" stroke="#d6e4ff" stroke-width="4" />
  <path d="M172 168c-8-12-14-36-10-56s18-34 36-38" stroke="#2d7ff9" stroke-width="6" stroke-linecap="round" />
  <path d="M308 168c8-12 14-36 10-56s-18-34-36-38" stroke="#2d7ff9" stroke-width="6" stroke-linecap="round" />
  <circle cx="204" cy="184" r="8" fill="#2d7ff9" />
  <circle cx="276" cy="184" r="8" fill="#2d7ff9" />
  <path d="M216 214c6 10 18 18 32 18s26-8 32-18" stroke="#2d7ff9" stroke-width="6" stroke-linecap="round" />
  <defs>
    <linearGradient id="paint0_linear" x1="40" y1="40" x2="440" y2="520" gradientUnits="userSpaceOnUse">
      <stop stop-color="#f2f6ff" />
      <stop offset="1" stop-color="#ffffff" />
    </linearGradient>
  </defs>
</svg>
